<svg xmlns="http://www.w3.org/2000/svg">
  <style>:root svg:not(:target) {display: none}</style>

  <svg id="burger-icon" viewBox="0 0 24 24" fill="none">
  <line y1="3" x2="24" y2="3" stroke="black" stroke-width="2"/>
  <line y1="11" x2="24" y2="11" stroke="black" stroke-width="2"/>
  <line y1="19" x2="24" y2="19" stroke="black" stroke-width="2"/>
  </svg>

  <svg id="x-icon" viewBox="0 0 20 20" fill="none">
  <line y1="-0.75" x2="24.7577" y2="-0.75" transform="matrix(0.686589 -0.727046 0.686589 0.727046 2.00171 20)" stroke="black" stroke-width="1.5"/>
  <line y1="-0.75" x2="24.7577" y2="-0.75" transform="matrix(0.686589 0.727046 -0.686589 0.727046 1 2)" stroke="black" stroke-width="1.5"/>
  </svg>

  <svg id="program-diet" viewBox="0 0 50 53" fill="none">
  <circle cx="25" cy="28" r="25" fill="#68B738"/>
  <g clip-path="url(#clip0_94_6)">
  <path d="M35.2034 0H35.008C34.6778 0.187081 34.415 0.473924 34.2571 0.819588C33.968 1.37738 33.7453 1.96735 33.5937 2.57732C33.5612 2.76073 33.4688 2.92811 33.331 3.05315C33.1932 3.17818 33.0179 3.25377 32.8326 3.26804C32.2658 3.36597 31.7288 3.59243 31.2626 3.93012C30.7965 4.26781 30.4135 4.7078 30.1429 5.21649C29.7708 5.87697 29.4526 6.5665 29.1914 7.27835C28.4611 9.17526 27.9006 11.134 27.2114 13.0464C26.8874 13.9175 26.872 13.9175 25.8949 13.9175C24.7274 13.9175 24.8097 13.7371 24.7943 15.0258C24.7943 15.433 24.9177 15.6392 25.3497 15.6186C25.4834 15.6186 25.684 15.5515 25.7354 15.7268C25.7869 15.9021 25.612 15.9794 25.5091 16.0825C24.8994 16.7029 24.1276 17.1388 23.2823 17.3402C22.3051 17.6031 21.3074 17.8093 20.356 18.1289C17.9131 18.9485 15.6554 20.0928 13.8966 22.0309C12.8681 23.2347 12.0445 24.6001 11.4589 26.0722C9.57143 30.5258 8.656 35.2165 7.94629 39.9536C7.612 42.1753 7.37543 44.4072 7.19543 46.6546C7.10286 47.7577 7 48.8763 7 50H24.1411C24.1696 49.7731 24.1283 49.5429 24.0229 49.3402C23.858 48.9289 23.5901 48.5672 23.2451 48.29C22.9 48.0128 22.4895 47.8295 22.0531 47.7577C21.6931 47.6753 21.652 47.567 21.8731 47.2835C22.2338 46.801 22.5103 46.2607 22.6909 45.6856C23.5291 43.2062 23.8531 40.6186 24.2594 38.0567C24.4889 36.0999 25.0894 34.2051 26.0286 32.4742C26.7611 31.2002 27.7382 30.0842 28.9034 29.1907C29.3303 28.866 29.3457 28.866 29.4177 29.4175C29.4691 29.7835 29.4794 30.1598 29.5051 30.5309C29.6595 32.9662 29.6285 35.4097 29.4126 37.8402C29.2184 39.7242 29.1926 41.6217 29.3354 43.5103C29.5399 45.7029 29.9304 47.8739 30.5029 50H37.3429C37.2536 49.442 36.9973 48.9243 36.6078 48.5156C36.2184 48.1069 35.7143 47.8264 35.1623 47.7113C34.5177 47.6087 33.8587 47.6438 33.2286 47.8144C32.92 47.8866 32.7914 47.8144 32.7657 47.4794C32.5529 44.7505 32.7261 42.0051 33.28 39.3247C33.966 36.2304 34.4912 33.1025 34.8537 29.9536C34.9887 28.6819 35.3881 27.4528 36.0263 26.3454C36.6383 25.2526 37.1731 24.1186 37.7749 23.0206C38.0138 22.6214 38.1575 22.1723 38.195 21.7083C38.2325 21.2443 38.1626 20.7779 37.9909 20.3454C37.852 19.9794 37.7183 19.6082 37.5486 19.2577C37.0343 18.2526 36.52 17.2577 36.0469 16.2423C35.7949 15.7268 35.8514 15.6649 36.412 15.6495C37.2503 15.6495 37.2503 15.6495 37.2657 14.8041C37.2657 14.6907 37.2657 14.5773 37.2657 14.4639C37.2657 14.1082 37.132 13.9124 36.7514 13.9485C36.4943 13.9485 36.2371 13.9485 35.9697 13.9485C35.6149 13.9485 35.512 13.799 35.5994 13.433C35.7729 12.838 36.1142 12.306 36.5823 11.9009C37.0503 11.4958 37.6252 11.2349 38.2377 11.1495C39.3772 11.0505 40.5251 11.1252 41.6423 11.3711C41.7712 11.4118 41.9109 11.4001 42.0312 11.3383C42.1515 11.2766 42.2427 11.1699 42.2851 11.0412C42.4909 10.5258 42.7171 10.0103 42.9486 9.49484C43.001 9.40339 43.0242 9.29801 43.015 9.19293C43.0058 9.08785 42.9647 8.98812 42.8971 8.90722C41.2514 6.81443 39.4669 4.86082 37.0343 3.60825C36.9168 3.55754 36.8138 3.47814 36.7347 3.3773C36.6557 3.27646 36.6031 3.15738 36.5817 3.03093C36.444 2.29408 36.225 1.57487 35.9286 0.886598C35.7895 0.519904 35.5349 0.20865 35.2034 0V0Z" fill="black"/>
  </g>
  <defs>
  <clipPath id="clip0_94_6">
  <rect width="36" height="50" fill="white" transform="translate(7)"/>
  </clipPath>
  </defs>
  </svg>

  <svg id="program-weight" viewBox="0 0 268 200" fill="none">
  <circle cx="134" cy="100" r="100" fill="#68B738"/>
  <g clip-path="url(#clip0_2403_774)">
  <path d="M246.236 55.5137C248.545 51.8399 251.614 48.7029 255.236 46.3137C257.236 44.9137 258.436 44.9137 259.636 47.5137C261.236 51.3137 262.636 55.3137 261.436 59.5137C261.218 60.226 261.177 60.9809 261.316 61.7128C261.456 62.4447 261.772 63.1315 262.236 63.7137C263.436 65.3137 264.436 66.9137 265.436 68.3137C266.797 70.0412 267.68 72.0963 267.996 74.2728C268.312 76.4492 268.05 78.6705 267.236 80.7137C266.502 82.6973 266.363 84.8522 266.836 86.9137C267.236 88.8937 267.236 90.9337 266.836 92.9137C266.675 94.3965 266.075 95.7975 265.113 96.9375C264.151 98.0775 262.871 98.9048 261.436 99.3137C258.878 99.8005 256.595 101.227 255.036 103.314C254.848 103.621 254.583 103.874 254.267 104.049C253.952 104.225 253.597 104.316 253.236 104.314C250.836 104.714 244.836 99.3137 244.836 96.9137V95.7137C245.036 88.5137 244.636 87.9137 238.036 84.9137C236.655 84.4265 235.417 83.6015 234.436 82.5137C233.236 80.9137 231.636 81.1137 229.836 81.7137C228.036 82.3137 227.036 83.5137 227.236 85.5137C227.84 90.3554 228.04 95.2388 227.836 100.114C227.85 100.67 227.986 101.217 228.236 101.714C234.436 110.714 236.836 121.314 239.836 131.514C242.236 139.314 246.636 143.514 254.636 144.114C255.917 144.216 257.187 144.416 258.436 144.714C260.08 144.978 261.607 145.729 262.819 146.87C264.031 148.011 264.873 149.489 265.236 151.114C266.636 155.314 265.836 156.314 261.636 156.314H248.636C246.953 156.399 245.303 155.825 244.036 154.714C242.012 153.005 239.713 151.653 237.236 150.714C234.499 149.703 232.129 147.891 230.436 145.514C228.094 142.241 225.412 139.224 222.436 136.514C216.836 130.714 210.836 125.114 205.636 119.114C201.678 115.025 199.395 109.602 199.236 103.914C199.236 102.114 198.836 101.314 196.836 102.114C196.238 102.494 195.546 102.701 194.836 102.714C189.236 102.714 186.436 106.114 184.436 111.114C182.636 115.314 180.236 119.314 178.036 123.514C176.789 126.143 176.108 129.005 176.036 131.914C176.036 136.714 177.236 138.314 181.636 139.914C184.436 140.914 187.036 141.914 188.436 144.714C190.036 147.914 189.636 148.714 186.236 148.914H172.636C171.852 148.991 171.064 148.821 170.382 148.426C169.7 148.031 169.16 147.432 168.836 146.714L165.236 140.714C164.175 139.148 163.496 137.356 163.253 135.48C163.01 133.605 163.21 131.698 163.836 129.914C164.702 126.441 164.77 122.817 164.036 119.314C163.532 116.874 163.576 114.353 164.164 111.932C164.752 109.511 165.869 107.25 167.436 105.314C168.636 103.914 168.636 103.314 166.636 102.914C158.458 101.176 150.53 98.4217 143.036 94.7137C142.983 94.7137 142.933 94.6926 142.895 94.6551C142.858 94.6176 142.836 94.5667 142.836 94.5137C136.436 92.1137 135.236 92.5137 133.436 99.1137C131.836 104.714 130.236 110.314 129.036 116.114C127.636 122.514 129.236 128.514 131.236 134.514C132.036 136.914 134.436 136.714 136.236 137.314C140.236 138.514 143.636 140.114 145.236 144.314C146.636 147.514 146.436 147.914 143.036 147.914C139.636 147.914 136.236 147.714 132.636 147.914C129.599 147.969 126.634 146.98 124.236 145.114C114.636 138.714 111.836 128.914 111.036 118.314C110.636 111.714 107.036 106.514 102.836 101.514C102.036 100.514 101.236 100.114 100.036 100.914C95.7434 103.281 91.2614 105.288 86.6365 106.914C76.985 110.322 68.5157 116.431 62.2365 124.514C59.8918 127.464 58.3732 130.984 57.8365 134.714C57.2365 138.314 58.2365 139.914 61.8365 140.914C65.4365 141.914 67.2365 143.914 67.6365 147.714C67.8365 149.314 67.2365 150.114 65.6365 150.114H49.4365C48.9063 150.076 48.393 149.911 47.9403 149.632C47.4876 149.354 47.1089 148.97 46.8365 148.514C44.3242 145.403 42.9798 141.512 43.0365 137.514C42.9315 130.604 43.5346 123.701 44.8365 116.914C45.1034 114.881 45.8623 112.944 47.0473 111.271C48.2323 109.598 49.8075 108.24 51.6365 107.314C63.4365 101.714 69.6365 91.1137 75.2365 80.1137C76.4365 77.9137 75.4365 77.5137 73.4365 77.7137C67.8391 78.4908 62.5358 80.6947 58.0365 84.1137C52.1448 88.4114 46.5949 93.1589 41.4365 98.3137C35.9358 103.901 28.6418 107.371 20.8365 108.114C6.23646 108.914 -0.56354 100.714 0.0364599 87.5137C0.170585 83.0129 1.86775 78.6993 4.83646 75.3137C5.8685 73.9757 7.27593 72.9757 8.87899 72.4413C10.4821 71.907 12.208 71.8625 13.8365 72.3137C16.8365 73.1137 17.6365 74.7137 16.4365 77.7137C15.8365 78.9137 15.0365 79.9137 14.4365 81.1137C13.5737 82.3396 12.8995 83.6879 12.4365 85.1137C10.2365 91.1137 13.2365 95.3137 19.4365 95.9137C26.0365 96.5137 31.4365 93.7137 36.4365 89.7137C42.4603 84.8902 47.8379 79.311 52.4365 73.1137C55.875 68.5885 60.2046 64.8163 65.1581 62.03C70.1116 59.2436 75.5837 57.5024 81.2365 56.9137C85.8365 56.3137 89.8365 54.3137 94.2365 53.1137C102.465 50.6049 111.034 49.3904 119.636 49.5137C123.621 49.6796 127.59 48.9269 131.236 47.3137C141.036 43.3137 151.236 43.3137 161.436 45.3137C169.436 46.9137 177.436 48.9137 185.236 50.9137C189.878 51.7787 194.651 51.6423 199.236 50.5137C208.014 48.2888 216.992 46.9488 226.036 46.5137C231.961 46.2254 237.867 47.3928 243.236 49.9137C247.236 51.7137 247.236 51.7137 246.236 55.5137Z" fill="black"/>
  </g>
  <defs>
  <clipPath id="clip0_2403_774">
  <rect width="268" height="112" fill="white" transform="translate(0 44)"/>
  </clipPath>
  </defs>
  </svg>

  <svg id="arrow-icon" viewBox="0 0 32 12" fill="none">
  <line y1="6" x2="26" y2="6" stroke="black" stroke-width="2"/>
  <path d="M32 6L25.25 11.1962L25.25 0.803848L32 6Z" fill="black"/>
  </svg>

  <svg id="leaf-icon" viewBox="0 0 30 32" fill="none">
  <g clip-path="url(#clip0_2403_796)">
  <path d="M27.7754 2.767C27.6751 2.317 27.2963 2 26.8641 2C26.8623 2 26.8604 2 26.8585 2C21.9207 2.033 9.91319 2.916 5.06538 10.38C2.54725 14.258 2.33069 19.293 4.42132 25.345C4.43725 25.392 4.47007 25.424 4.49163 25.467C3.74444 27.44 3.45475 28.753 3.44725 28.79C3.3385 29.33 3.66194 29.862 4.16819 29.978C4.23382 29.993 4.29944 30 4.36507 30C4.79725 30 5.18632 29.679 5.281 29.21C5.30069 29.108 7.68944 18.837 16.1344 12.832C16.5657 12.526 16.6819 11.905 16.3941 11.445C16.1063 10.985 15.5251 10.86 15.0938 11.168C10.3051 14.573 7.35569 19.176 5.62132 22.824C4.38007 18.246 4.70538 14.447 6.60757 11.519C10.351 5.755 19.2301 4.365 24.5898 4.071C23.4366 5.872 22.1766 9.174 22.1766 15C22.1766 18.12 21.3469 20.522 19.7119 22.14C17.0907 24.731 12.8326 24.974 9.71819 24.724C9.20069 24.679 8.75163 25.095 8.71225 25.646C8.67288 26.196 9.06007 26.676 9.57569 26.718C10.1991 26.769 10.8648 26.8 11.5566 26.8C14.7273 26.8 18.4257 26.137 20.986 23.606C23.0204 21.595 24.0516 18.7 24.0516 15.001C24.0516 5.902 27.2673 3.905 27.2832 3.896C27.6732 3.687 27.8776 3.219 27.7754 2.767Z" fill="white"/>
  </g>
  <defs>
  <clipPath id="clip0_2403_796">
  <rect width="30" height="32" fill="white"/>
  </clipPath>
  </defs>
  </svg>

  <svg id="glass-bubbles-icon" viewBox="0 0 26 29" fill="none">
  <path d="M10.8609 0C9.23173 0 7.96463 1.36758 7.96463 3.09985C7.96463 4.83212 9.23173 6.1997 10.8609 6.1997C12.49 6.1997 13.7571 4.83212 13.7571 3.09985C13.7571 1.36758 12.49 0 10.8609 0ZM10.8609 1.18524C11.8564 1.18524 12.5805 2.03314 12.5805 3.09985C12.5805 4.10275 11.7931 5.01447 10.8609 5.01447C9.86528 5.01447 9.14122 4.16657 9.14122 3.09985C9.14122 2.09696 9.91958 1.18524 10.8609 1.18524ZM0 24.89C0 26.0752 0.407282 27.0781 1.35761 27.8987C2.35319 28.7557 3.52978 28.6827 3.52978 28.6827H22.5363C23.3146 28.6827 24.3464 28.2998 25.161 27.224C26.0027 26.2211 25.9484 24.8535 25.9484 24.8535V7.53082C25.9484 7.09319 25.8398 6.92908 25.2062 6.92908C24.5727 6.92908 24.5184 7.2026 24.5184 7.5217V24.8444C24.5003 25.1453 24.446 25.9385 23.7762 26.5767C23.0431 27.2058 22.3281 27.1237 22.3281 27.1237C22.3281 27.1237 4.22668 27.1237 3.32161 27.0964C2.97769 27.0325 2.41654 26.9049 1.8735 26.1846C1.36666 25.4553 1.46622 24.5435 1.46622 24.5435V7.22083C1.46622 6.75585 1.2309 6.58263 0.742159 6.58263C0.25342 6.58263 0 6.75585 0 7.16613V24.89ZM16.2913 8.47901C15.2052 8.71605 14.1191 8.86193 12.0375 10.8495C9.95579 12.8553 8.41717 12.7641 6.87854 12.6729C5.33992 12.5818 3.71079 11.123 3.43927 10.7583C3.1044 10.4027 2.5342 10.6398 2.35319 10.8768C2.19932 11.1139 2.19932 11.5242 2.46179 11.8797C3.72889 13.065 4.90549 13.9767 7.16817 14.159C9.43085 14.3778 11.603 13.3476 13.0511 11.8797C14.4992 10.421 15.2233 10.1475 16.3094 9.96511C18.9341 9.54572 20.4727 10.5851 21.3778 11.2415C22.3734 12.3356 22.6449 12.0256 22.9164 11.7156C23.4595 10.9954 22.6901 10.4392 21.8303 9.801C20.0202 8.61576 18.3005 8.1599 16.3094 8.52459L16.2913 8.47901ZM7.24057 15.6816C6.06398 15.6816 5.15891 16.6845 5.15891 17.9609C5.15891 19.2373 6.06398 20.2402 7.24057 20.2402C8.41716 20.2402 9.32224 19.2373 9.32224 17.9609C9.32224 16.6845 8.41716 15.6816 7.24057 15.6816ZM19.0065 16.4657C17.4679 16.4657 16.2008 17.8333 16.2008 19.4744C16.2008 21.1155 17.4679 22.483 19.0065 22.483C20.5451 22.483 21.8122 21.1155 21.8122 19.4744C21.8122 17.8333 20.5451 16.4657 19.0065 16.4657ZM19.0065 17.9244C19.803 17.9244 20.4546 18.6265 20.4546 19.4744C20.4546 20.3405 19.803 21.0243 19.0065 21.0243C18.21 21.0243 17.5584 20.3223 17.5584 19.4744C17.5584 18.6082 18.21 17.9244 19.0065 17.9244Z" fill="white"/>
  </svg>

  <svg id="fork-knife-icon" viewBox="0 0 25 30" fill="none">
  <path fill-rule="evenodd" clip-rule="evenodd" d="M18.6173 0.0761497C18.991 -0.0786313 19.4211 0.00692445 19.7071 0.292922C20.6156 1.20142 21.8038 3.17065 22.7659 6.21082C23.7373 9.28039 24.5 13.5081 24.5 19C24.5 19.5523 24.0523 20 23.5 20H20V29C20 29.5523 19.5523 30 19 30C18.4477 30 18 29.5523 18 29V1.00003C18 0.595567 18.2436 0.230931 18.6173 0.0761497ZM20 18H22.4912C22.4053 13.1836 21.7051 9.48755 20.8591 6.81424C20.5807 5.93457 20.2885 5.1715 20 4.51895V18Z" fill="white"/>
  <path fill-rule="evenodd" clip-rule="evenodd" d="M6 0C6.55228 0 7 0.447715 7 1V29C7 29.5523 6.55228 30 6 30C5.44772 30 5 29.5523 5 29V1C5 0.447715 5.44772 0 6 0Z" fill="white"/>
  <path fill-rule="evenodd" clip-rule="evenodd" d="M1.5 0C2.05228 0 2.5 0.447715 2.5 1V6.5C2.5 7.05686 2.69203 7.81518 3.20088 8.41656C3.68001 8.98281 4.51446 9.5 5.99993 9.5C6.55221 9.5 6.99993 9.94771 6.99993 10.5C6.99993 11.0523 6.55221 11.5 5.99993 11.5C3.98547 11.5 2.56995 10.7672 1.6741 9.70844C0.807973 8.68482 0.5 7.44314 0.5 6.5V1C0.5 0.447715 0.947715 0 1.5 0Z" fill="white"/>
  <path fill-rule="evenodd" clip-rule="evenodd" d="M10.5 0C9.94771 0 9.5 0.447715 9.5 1V6.5C9.5 7.05686 9.30797 7.81518 8.79912 8.41656C8.31999 8.98281 7.4854 9.5 5.99993 9.5C5.44765 9.5 5.00007 9.94771 5.00007 10.5C5.00007 11.0523 5.44765 11.5 5.99993 11.5C8.01439 11.5 9.43005 10.7672 10.3259 9.70844C11.192 8.68482 11.5 7.44314 11.5 6.5V1C11.5 0.447715 11.0523 0 10.5 0Z" fill="white"/>
  </svg>

  <svg id="clock-icon" viewBox="0 0 26 32" fill="none">
  <path d="M5.53079 0C4.46922 0 4.46922 1.59266 5.53079 1.59266H12.1656V3.20655C5.37156 3.64188 0 9.47101 0 16.5849C0 20.6196 1.74098 24.2615 4.49045 26.7142C4.96816 27.1389 5.03185 27.8927 4.59661 28.3599L3.06794 29.9207C2.32484 30.6109 3.42888 31.6833 4.09767 30.9294L6.09343 28.8802C6.44375 28.5404 6.96392 28.4555 7.39916 28.6678C9.11549 29.5168 11.0026 29.9638 12.9173 29.9748C14.832 29.9859 16.7241 29.5607 18.4501 28.7315C18.8748 28.5192 19.4055 28.6041 19.7453 28.9439L21.6773 30.9294C22.3567 31.5665 23.3334 30.6109 22.7177 29.9207L21.2739 28.4343C20.8281 27.9777 20.8918 27.2238 21.3801 26.7885C22.8287 25.5116 23.9874 23.9396 24.7784 22.1778C25.5693 20.4161 25.9743 18.5055 25.9661 16.5743C25.9661 9.46039 20.5627 3.62064 13.758 3.20655V1.59266H20.3928C21.4544 1.59266 21.4544 0 20.3928 0H5.53079ZM1.43312 16.5743C1.43312 10.0019 6.60298 4.68241 12.983 4.68241C19.3525 4.68241 24.5223 10.0019 24.5223 16.5743C24.5223 23.1572 19.3525 28.4873 12.983 28.4873C6.6136 28.4873 1.43312 23.1572 1.43312 16.5743ZM12.1762 8.43047C12.1762 7.32623 13.8323 7.32623 13.8323 8.43047V17.1158C13.8323 17.341 13.7428 17.5571 13.5836 17.7164C13.4243 17.8757 13.2083 17.9652 12.983 17.9652C12.7709 17.9652 12.5673 17.8816 12.4163 17.7326C12.2653 17.5836 12.179 17.381 12.1762 17.1689V8.43047ZM7.20808 11.0637C7.51496 11.0637 7.80928 10.9417 8.02628 10.7247C8.24328 10.5076 8.36519 10.2133 8.36519 9.90633C8.36519 9.59939 8.24328 9.30502 8.02628 9.08797C7.80928 8.87093 7.51496 8.749 7.20808 8.749C6.92168 8.77653 6.65581 8.9098 6.46233 9.1228C6.26886 9.3358 6.16167 9.61325 6.16167 9.90102C6.16167 10.1888 6.26886 10.4662 6.46233 10.6792C6.65581 10.8922 6.92168 11.0255 7.20808 11.053V11.0637ZM18.7474 11.0637C19.0543 11.0637 19.3486 10.9417 19.5656 10.7247C19.7826 10.5076 19.9045 10.2133 19.9045 9.90633C19.9045 9.59939 19.7826 9.30502 19.5656 9.08797C19.3486 8.87093 19.0543 8.749 18.7474 8.749C18.461 8.77653 18.1951 8.9098 18.0016 9.1228C17.8082 9.3358 17.701 9.61325 17.701 9.90102C17.701 10.1888 17.8082 10.4662 18.0016 10.6792C18.1951 10.8922 18.461 11.0255 18.7474 11.053V11.0637ZM8.36519 23.7306C8.36519 25.2702 6.05096 25.2702 6.05096 23.7306C6.05096 22.191 8.36519 22.191 8.36519 23.7306ZM12.983 27.192C13.1436 27.2074 13.3056 27.1891 13.4586 27.1382C13.6117 27.0874 13.7524 27.005 13.8718 26.8966C13.9912 26.7881 14.0866 26.6558 14.1519 26.5083C14.2171 26.3608 14.2509 26.2013 14.2509 26.04C14.2509 25.8786 14.2171 25.7191 14.1519 25.5716C14.0866 25.4241 13.9912 25.2918 13.8718 25.1833C13.7524 25.0749 13.6117 24.9926 13.4586 24.9417C13.3056 24.8908 13.1436 24.8725 12.983 24.8879C12.6966 24.9155 12.4308 25.0487 12.2373 25.2617C12.0438 25.4747 11.9366 25.7522 11.9366 26.04C11.9366 26.3277 12.0438 26.6052 12.2373 26.8182C12.4308 27.0312 12.6966 27.1644 12.983 27.192ZM4.90447 16.7441C4.9199 16.9047 4.90159 17.0668 4.85073 17.2198C4.79986 17.3729 4.71756 17.5137 4.60911 17.6331C4.50065 17.7525 4.36844 17.8479 4.22095 17.9132C4.07346 17.9785 3.91395 18.0122 3.75266 18.0122C3.59137 18.0122 3.43186 17.9785 3.28437 17.9132C3.13688 17.8479 3.00467 17.7525 2.89621 17.6331C2.78775 17.5137 2.70545 17.3729 2.65459 17.2198C2.60373 17.0668 2.58542 16.9047 2.60085 16.7441C2.62838 16.4577 2.76162 16.1918 2.97458 15.9983C3.18754 15.8047 3.46494 15.6975 3.75266 15.6975C4.04038 15.6975 4.31778 15.8047 4.53074 15.9983C4.7437 16.1918 4.87694 16.4577 4.90447 16.7441ZM22.2081 17.9015C22.3686 17.9169 22.5307 17.8986 22.6837 17.8477C22.8368 17.7969 22.9775 17.7145 23.0969 17.6061C23.2163 17.4976 23.3116 17.3653 23.3769 17.2178C23.4422 17.0703 23.4759 16.9108 23.4759 16.7495C23.4759 16.5881 23.4422 16.4286 23.3769 16.2811C23.3116 16.1336 23.2163 16.0013 23.0969 15.8928C22.9775 15.7844 22.8368 15.702 22.6837 15.6512C22.5307 15.6003 22.3686 15.582 22.2081 15.5974C21.9217 15.625 21.6558 15.7582 21.4624 15.9712C21.2689 16.1842 21.1617 16.4617 21.1617 16.7495C21.1617 17.0372 21.2689 17.3147 21.4624 17.5277C21.6558 17.7407 21.9217 17.8739 22.2081 17.9015ZM19.9045 23.7412C19.9045 25.2702 17.5903 25.2702 17.5903 23.7306C17.5903 22.191 19.9045 22.191 19.9045 23.7306V23.7412Z" fill="white"/>
  </svg>

  <svg id="vk-icon" viewBox="0 0 28 22" fill="none">
  <path d="M1 5.33876C1 4.48373 1.5151 4.02268 2.54531 3.95562L6.51515 3.98077C6.78158 3.98077 6.95921 4.10651 7.04802 4.35799C7.45655 5.61538 7.91392 6.70094 8.42014 7.61465C8.92637 8.52835 9.58801 9.58038 10.4051 10.7707C10.4761 10.9216 10.5916 10.997 10.7514 10.997C10.8758 10.997 10.9735 10.9384 11.0445 10.821L11.1244 10.5444L11.1511 6.19379C11.1511 5.89201 11.0756 5.69083 10.9246 5.59024C10.7736 5.48965 10.4939 5.4142 10.0853 5.36391C9.76563 5.31361 9.60577 5.12919 9.60577 4.81065C9.60577 4.74359 9.61465 4.69329 9.63241 4.65976C10.0054 3.57002 11.0711 3.02515 12.8296 3.02515L14.3216 3C14.9966 3 15.5561 3.15927 16.0001 3.47781C16.4442 3.79635 16.6662 4.29931 16.6662 4.98669V10.6953C16.7906 10.7791 16.906 10.821 17.0126 10.821C17.279 10.821 17.5099 10.6701 17.7053 10.3683C19.6592 7.78649 20.716 6.05966 20.8759 5.18787C20.8759 5.1711 20.8936 5.12919 20.9291 5.06213C21.0535 4.81065 21.2577 4.5927 21.5419 4.40828C21.8261 4.22387 22.0748 4.09813 22.288 4.03107C22.359 3.99753 22.4389 3.98077 22.5277 3.98077H26.6574L26.9239 4.00592C27.2791 4.00592 27.5544 4.16519 27.7498 4.48373C27.8209 4.58432 27.8697 4.69329 27.8964 4.81065C27.923 4.92801 27.9408 5.04536 27.9496 5.16272C27.9585 5.28008 27.963 5.34714 27.963 5.36391V5.53994C27.8386 6.22732 27.5233 6.9608 27.0171 7.74038C26.5109 8.51997 25.867 9.36243 25.0855 10.2678C24.304 11.1731 23.8155 11.7682 23.6201 12.0533C23.4603 12.2544 23.3803 12.4389 23.3803 12.6065C23.3803 12.7406 23.4514 12.8915 23.5935 13.0592L27.4834 17.6864C27.6965 17.9546 27.8031 18.248 27.8031 18.5666C27.8031 18.9522 27.6432 19.2707 27.3235 19.5222C27.0038 19.7737 26.6219 19.9162 26.1779 19.9497L25.7249 19.9749H21.6752C21.6574 19.9749 21.6219 19.979 21.5686 19.9874C21.5153 19.9958 21.4798 20 21.462 20C21.0712 20 20.7071 19.8407 20.3696 19.5222C20.2453 19.3881 19.4105 18.3989 17.8652 16.5547C17.7764 16.4374 17.652 16.3284 17.4922 16.2278C17.4211 16.4961 17.3279 16.8817 17.2124 17.3846C17.097 17.8876 17.0126 18.248 16.9593 18.466L16.8794 18.8935C16.7018 19.4803 16.3287 19.8323 15.7604 19.9497L15.3874 19.9749H12.7763C11.3021 19.9749 9.83224 19.3378 8.36686 18.0636C6.90148 16.7894 5.58264 15.1423 4.41034 13.122C3.23803 11.1018 2.14566 8.75049 1.13322 6.06805C1.04441 5.8501 1 5.607 1 5.33876ZM17.0126 11.8521C16.6396 11.8521 16.3021 11.7557 16.0001 11.5629C15.6982 11.3701 15.5472 11.106 15.5472 10.7707V4.98669C15.5472 4.65138 15.4584 4.41248 15.2808 4.26997C15.1032 4.12747 14.7923 4.05621 14.3483 4.05621L12.8296 4.10651C12.0658 4.10651 11.4886 4.23225 11.0978 4.48373C11.8793 4.8358 12.2701 5.40582 12.2701 6.19379V10.6198C12.2346 11.039 12.0569 11.3868 11.7372 11.6635C11.4175 11.9401 11.0623 12.0784 10.6715 12.0784C10.1386 12.0784 9.7301 11.8353 9.44591 11.3491C8.06046 9.37081 7.03025 7.4931 6.35529 5.71598L6.1155 5.06213L2.57195 5.03698C2.34104 5.03698 2.21227 5.04956 2.18562 5.0747C2.15898 5.09985 2.14566 5.1711 2.14566 5.28846C2.14566 5.43935 2.16342 5.59862 2.19895 5.76627L2.75845 7.17456C4.25048 10.8126 5.87127 13.6795 7.62085 15.7751C9.37042 17.8708 11.0889 18.9186 12.7763 18.9186H15.4406C15.5472 18.9186 15.6271 18.8893 15.6804 18.8306C15.7337 18.7719 15.7781 18.6588 15.8136 18.4911L15.8669 18.2396L16.3732 16.0266C16.5152 15.7249 16.6396 15.5237 16.7462 15.4231C16.9415 15.2387 17.1725 15.1465 17.4389 15.1465C17.8652 15.1465 18.3003 15.3895 18.7444 15.8757L21.0091 18.5917C21.1512 18.8097 21.3022 18.9186 21.462 18.9186H25.8581C26.391 18.9186 26.6574 18.7929 26.6574 18.5414C26.6574 18.4576 26.6308 18.3738 26.5775 18.2899L22.7142 13.7382C22.4123 13.3861 22.2613 13.0089 22.2613 12.6065C22.2613 12.2041 22.4034 11.8185 22.6876 11.4497C22.9185 11.1144 23.367 10.557 24.0331 9.77737C24.6992 8.99778 25.2809 8.26849 25.7782 7.5895C26.2756 6.9105 26.6042 6.29438 26.764 5.74112L26.8439 5.4142C26.8262 5.38067 26.8173 5.32618 26.8173 5.25074C26.8173 5.1753 26.8084 5.11243 26.7907 5.06213H22.6077C22.3412 5.16272 22.1281 5.31361 21.9682 5.51479L21.8084 5.9926C21.3643 7.14941 20.2009 8.93491 18.3181 11.3491C17.9451 11.6844 17.5099 11.8521 17.0126 11.8521Z" fill="#666666"/>
  </svg>

  <svg id="youtube-icon" viewBox="0 0 28 22" fill="none">
  <path d="M17.8509 10.7927L12.6145 7.30184C12.5159 7.23691 12.4016 7.19985 12.2837 7.19459C12.1657 7.18934 12.0486 7.21608 11.9446 7.27198C11.8406 7.32789 11.7537 7.41087 11.693 7.51215C11.6324 7.61343 11.6002 7.72924 11.6 7.84729V14.8291C11.6001 14.9481 11.6327 15.0648 11.6942 15.1667C11.7557 15.2686 11.8438 15.3518 11.9491 15.4073C12.0524 15.4631 12.1691 15.4895 12.2864 15.4837C12.4037 15.478 12.5172 15.4402 12.6145 15.3746L17.8509 11.8837C17.9409 11.8239 18.0148 11.7429 18.0658 11.6477C18.1169 11.5526 18.1436 11.4462 18.1436 11.3382C18.1436 11.2302 18.1169 11.1239 18.0658 11.0287C18.0148 10.9335 17.9409 10.8525 17.8509 10.7927ZM12.9091 13.6073V9.06911L16.3127 11.3382L12.9091 13.6073ZM25.3891 5.04366C25.2942 4.67547 25.1131 4.33511 24.8609 4.05061C24.6086 3.76611 24.2924 3.54561 23.9382 3.40729C20.2182 1.9782 14.2509 2.00002 14 2.00002C13.7491 2.00002 7.78182 1.9782 4.06182 3.40729C3.70764 3.54561 3.3914 3.76611 3.13914 4.05061C2.88689 4.33511 2.70584 4.67547 2.61091 5.04366C2.32727 6.11275 2 8.07638 2 11.3382C2 14.6 2.32727 16.5637 2.61091 17.6327C2.70584 18.0009 2.88689 18.3413 3.13914 18.6258C3.3914 18.9103 3.70764 19.1308 4.06182 19.2691C7.78182 20.6982 13.7491 20.6764 14 20.6764H14.0764C14.8291 20.6764 20.3927 20.6327 23.9382 19.2691C24.2924 19.1308 24.6086 18.9103 24.8609 18.6258C25.1131 18.3413 25.2942 18.0009 25.3891 17.6327C25.6727 16.5637 26 14.6 26 11.3382C26 8.07638 25.6727 6.11275 25.3891 5.04366ZM24.1236 17.3055C24.0807 17.472 23.999 17.6259 23.8853 17.7548C23.7715 17.8838 23.6289 17.984 23.4691 18.0473C19.9782 19.3891 14.0655 19.3673 14 19.3673C13.9345 19.3673 8.02182 19.3891 4.53091 18.0473C4.37107 17.984 4.22846 17.8838 4.11471 17.7548C4.00096 17.6259 3.91929 17.472 3.87636 17.3055C3.61455 16.3018 3.30909 14.4582 3.30909 11.3382C3.30909 8.2182 3.61455 6.37457 3.87636 5.37093C3.91929 5.20445 4.00096 5.05047 4.11471 4.92156C4.22846 4.79264 4.37107 4.69243 4.53091 4.62911C8.02182 3.28729 13.9345 3.30911 14 3.30911C14.0655 3.30911 19.9782 3.28729 23.4691 4.62911C23.6289 4.69243 23.7715 4.79264 23.8853 4.92156C23.999 5.05047 24.0807 5.20445 24.1236 5.37093C24.3855 6.37457 24.6909 8.2182 24.6909 11.3382C24.6909 14.4582 24.3855 16.3018 24.1236 17.3055Z" fill="#666666"/>
  </svg>

  <svg id="telegram-icon" viewBox="0 0 28 22" fill="none">
  <path fill-rule="evenodd" clip-rule="evenodd" d="M23.4608 3.15291C23.6393 3.30222 23.7255 3.5349 23.6872 3.76448L21.0611 19.5214C21.0244 19.7411 20.8789 19.9273 20.6745 20.0159C20.47 20.1045 20.2346 20.0833 20.0493 19.9597L12.1708 14.7074C12.0177 14.6054 11.9145 14.4437 11.8862 14.2619C11.858 14.08 11.9074 13.8947 12.0223 13.751L14.633 10.4877L10.273 13.3944C10.077 13.525 9.82597 13.5407 9.61524 13.4353L4.36293 10.8092C4.12769 10.6915 3.98535 10.4449 4.0012 10.1824C4.01705 9.91983 4.18804 9.6921 4.43573 9.60364L22.8188 3.03826C23.038 2.95998 23.2822 3.00359 23.4608 3.15291ZM6.32626 10.3228L9.86168 12.0905L17.4231 7.0495C17.6925 6.86994 18.0525 6.91349 18.2712 7.1521C18.49 7.3907 18.5022 7.75314 18.3 8.00591L13.495 14.0121L19.9328 18.3039L22.2083 4.65058L6.32626 10.3228Z" fill="#666666"/>
  </svg>

  <svg id="academy-logo" viewBox="0 0 27 34" fill="none">
  <g clip-path="url(#clip0_91820_69)">
  <path d="M13.6426 0.0157537L13.5 0L0 1.40733V26.0129L13.5 34L27 26.0129V1.40733L13.6426 0.0157537ZM25.2344 25.0151L13.5 31.9573L1.76561 25.0151V14.9293L13.4507 21.8451L13.4701 23.0984L5.45351 18.3548L5.44295 19.5801L13.4894 24.3885L13.5088 25.675L5.46408 20.9174L5.45351 22.1427L13.5 26.9511L21.6239 22.1182V20.8929V16.909L25.2432 14.7595L25.2344 25.0151ZM25.2344 13.4519L22.0147 15.3319L20.5325 16.2071L13.4666 12.0201L13.456 13.2454L19.4957 16.818L19.4429 16.8495L19.3126 16.9247L18.4536 17.4166L13.4666 14.4689L13.456 15.6942L17.3921 18.0222L16.4591 18.6314L16.438 18.6436L13.4666 16.902L13.456 18.1273L15.4029 19.2615L13.4155 20.4483L1.7973 13.5762L13.4349 6.61831L25.2344 13.4519ZM25.2344 12.2266L13.4401 5.31075L1.76561 12.2196V2.9897L13.5 1.76442L25.2344 2.9897V12.2266Z" fill="#666666"/>
  </g>
  <defs>
  <clipPath id="clip0_91820_69">
  <rect width="27" height="34" fill="white"/>
  </clipPath>
  </defs>
  </svg>

  <svg id="email-icon" viewBox="0 0 19 14" fill="none">
  <line x1="0.65" y1="6" x2="0.65" y2="14" stroke="#222222" stroke-width="1.3"/>
  <line x1="17.65" y1="6" x2="17.65" y2="14" stroke="#222222" stroke-width="1.3"/>
  <line y1="13.35" x2="18" y2="13.35" stroke="#222222" stroke-width="1.3"/>
  <line y1="1.35" x2="18" y2="1.35" stroke="#222222" stroke-width="1.3"/>
  <path d="M17.35 3.1821L9.00002 9.67654L0.65 3.18209V1.65H3.5L9.00002 1.65H14H17.35V3.1821Z" stroke="#222222" stroke-width="1.3"/>
  </svg>

  <svg id="phone-icon" viewBox="0 0 20 20" fill="none">
  <path d="M10.0022 10H18.5041M18.5041 10L16.0036 7.5M18.5041 10L16.0036 12.5M8.50191 2.5V7.5H5.50124V12.5H8.50191V17.5H6.00135C4.50102 17.5 3.50079 16.5 3.50079 15V5C3.50079 3.5 4.50102 2.5 6.00135 2.5H8.50191Z" stroke="black" stroke-linecap="round" stroke-linejoin="round"/>
  </svg>

  <svg id="plus-icon" viewBox="0 0 60 60" fill="none" xmlns="http://www.w3.org/2000/svg">
  <line x1="31" x2="31" y2="60" stroke="#D3D3D3" stroke-width="2"/>
  <line x1="60" y1="31" y2="31" stroke="#D3D3D3" stroke-width="2"/>
  </svg>

  <svg id="gift-icon" viewBox="0 0 78 81" fill="none">
  <path d="M64.0156 35.6325H14.031C12.2766 35.6325 10.8494 34.2144 10.8494 32.4709V22.9989C10.8494 21.2554 12.2766 19.8367 14.031 19.8367H64.0149C65.7687 19.8367 67.1953 21.2554 67.1953 22.9989V32.4715C67.1959 34.2144 65.7693 35.6325 64.0156 35.6325ZM14.031 22.2598C13.6276 22.2598 13.2869 22.5984 13.2869 22.9989V32.4715C13.2869 32.8786 13.6208 33.21 14.031 33.21H64.0149C64.4244 33.21 64.7578 32.8786 64.7578 32.4715V22.9989C64.7578 22.5978 64.4171 22.2598 64.0149 22.2598H14.031Z" fill="white"/>
  <path d="M57.0447 68.0821H20.999C17.6218 68.0821 14.8741 65.3512 14.8741 61.9933V34.421C14.8741 33.7523 15.4201 33.2095 16.0929 33.2095C16.7656 33.2095 17.3116 33.7523 17.3116 34.421V61.9933C17.3116 64.0148 18.9661 65.6589 20.999 65.6589H57.0447C59.077 65.6589 60.7308 64.0148 60.7308 61.9933V34.421C60.7308 33.7523 61.2768 33.2095 61.9496 33.2095C62.6223 33.2095 63.1683 33.7523 63.1683 34.421V61.9933C63.1683 65.3512 60.4213 68.0821 57.0447 68.0821Z" fill="white"/>
  <path d="M39.0225 68.0821C38.3498 68.0821 37.8038 67.5399 37.8038 66.8705V34.421C37.8038 33.7523 38.3498 33.2095 39.0225 33.2095C39.6953 33.2095 40.2413 33.7523 40.2413 34.421V66.8699C40.2413 67.5399 39.6959 68.0821 39.0225 68.0821Z" fill="white"/>
  <path d="M23.8113 22.2556C19.9966 20.2008 18.5731 15.4442 20.6383 11.6513C22.7022 7.86033 27.4864 6.44461 31.303 8.4958C37.117 11.6265 40.2565 20.3607 40.3869 20.7308L38.0877 21.5347C38.0585 21.4523 35.1256 13.31 30.1433 10.627C27.5078 9.21063 24.2062 10.1884 22.7821 12.8047C21.3567 15.4236 22.339 18.7069 24.9734 20.1251L23.8113 22.2556Z" fill="white"/>
  <path d="M54.2313 22.2556L53.071 20.1244C54.3477 19.4369 55.2782 18.2974 55.6926 16.9156C56.1063 15.5332 55.9534 14.0732 55.2617 12.8053C54.5719 11.5362 53.4263 10.6118 52.0363 10.2005C50.6457 9.78913 49.1783 9.94058 47.9023 10.6269C42.9201 13.3093 39.9871 21.4517 39.9579 21.5341L37.6587 20.7302C37.7891 20.3601 40.928 11.6259 46.7421 8.49578C48.5897 7.50109 50.7182 7.28179 52.7316 7.87788C54.7468 8.47337 56.4061 9.81397 57.4061 11.6513C58.4073 13.4881 58.6285 15.6029 58.0289 17.6062C57.4287 19.6089 56.0801 21.2597 54.2313 22.2556Z" fill="white"/>
  <path d="M61.9496 51.8567H16.0929C15.4201 51.8567 14.8741 51.3142 14.8741 50.6456C14.8741 49.9771 15.4201 49.4346 16.0929 49.4346H61.9496C62.6223 49.4346 63.1683 49.9771 63.1683 50.6456C63.1683 51.3142 62.6229 51.8567 61.9496 51.8567Z" fill="white"/>
  </svg>

  <svg id="tick-icon" viewBox="0 0 26 26" fill="none">
  <path d="M11 17.718L5.3 11.2695L4.25 12.4574L11 20.0938L22.25 7.36648L21.2 6.09375L11 17.718Z" fill="#68B738"/>
  </svg>

</svg>
